<svg width="12" height="13" viewBox="0 0 12 13" fill="none" xmlns="http://www.w3.org/2000/svg">
<path d="M6 0.8125C4.87512 0.8125 3.7755 1.14607 2.8402 1.77102C1.90489 2.39597 1.17591 3.28423 0.745438 4.32349C0.314964 5.36274 0.202333 6.50631 0.421786 7.60958C0.64124 8.71284 1.18292 9.72626 1.97833 10.5217C2.77374 11.3171 3.78716 11.8588 4.89043 12.0782C5.99369 12.2977 7.13726 12.185 8.17651 11.7546C9.21577 11.3241 10.104 10.5951 10.729 9.6598C11.3539 8.7245 11.6875 7.62488 11.6875 6.5C11.6859 4.99207 11.0862 3.54636 10.0199 2.48009C8.95364 1.41382 7.50793 0.814092 6 0.8125ZM8.49703 5.49703L5.43453 8.55953C5.3939 8.60021 5.34565 8.63248 5.29254 8.65449C5.23943 8.67651 5.1825 8.68784 5.125 8.68784C5.06751 8.68784 5.01058 8.67651 4.95747 8.65449C4.90435 8.63248 4.8561 8.60021 4.81547 8.55953L3.50297 7.24703C3.42088 7.16494 3.37476 7.0536 3.37476 6.9375C3.37476 6.8214 3.42088 6.71006 3.50297 6.62797C3.58506 6.54588 3.69641 6.49976 3.8125 6.49976C3.9286 6.49976 4.03994 6.54588 4.12203 6.62797L5.125 7.63148L7.87797 4.87797C7.91862 4.83732 7.96688 4.80508 8.01998 4.78308C8.07309 4.76108 8.13002 4.74976 8.1875 4.74976C8.24499 4.74976 8.30191 4.76108 8.35502 4.78308C8.40813 4.80508 8.45639 4.83732 8.49703 4.87797C8.53768 4.91862 8.56993 4.96687 8.59192 5.01998C8.61392 5.07309 8.62525 5.13001 8.62525 5.1875C8.62525 5.24499 8.61392 5.30191 8.59192 5.35502C8.56993 5.40813 8.53768 5.45638 8.49703 5.49703Z" fill="white"/>
</svg>
